<svg xmlns="http://www.w3.org/2000/svg" viewBox="-6.0 -80.0 317.5 86.9" width="260" role="img" aria-label="daevo">
  <title>daevo</title>
  <g><circle cx="31.80" cy="-27.70" r="21.50" fill="none" stroke="#FFFFFF" stroke-opacity="0.28" stroke-width="14.00"/>
    <path d="M 31.80 -49.20 A 21.50 21.50 0 1 1 13.18 -38.45" fill="none" stroke="#FFFFFF" stroke-width="14.00" stroke-linecap="round"/>
    <rect x="47.00" y="-74.00" width="14.00" height="74.00" fill="#FFFFFF"/></g>
  <g transform="translate(66.20 0)"><path fill="#FFFFFF" d="M28.6 -56.300000000000004Q34.800000000000004 -56.300000000000004 39.45 -53.800000000000004Q44.1 -51.300000000000004 46.900000000000006 -47.5V-55.400000000000006H61.0V0.0H46.900000000000006V-8.1Q44.2 -4.2 39.45 -1.6500000000000001Q34.7 0.9 28.5 0.9Q21.5 0.9 15.75 -2.7Q10.0 -6.300000000000001 6.65 -12.850000000000001Q3.3000000000000003 -19.400000000000002 3.3000000000000003 -27.900000000000002Q3.3000000000000003 -36.300000000000004 6.65 -42.800000000000004Q10.0 -49.300000000000004 15.75 -52.800000000000004Q21.5 -56.300000000000004 28.6 -56.300000000000004ZM32.2 -44.0Q28.3 -44.0 25.0 -42.1Q21.700000000000003 -40.2 19.650000000000002 -36.55Q17.6 -32.9 17.6 -27.900000000000002Q17.6 -22.900000000000002 19.650000000000002 -19.150000000000002Q21.700000000000003 -15.4 25.050000000000004 -13.4Q28.400000000000002 -11.4 32.2 -11.4Q36.1 -11.4 39.5 -13.350000000000001Q42.900000000000006 -15.3 44.900000000000006 -18.950000000000003Q46.900000000000006 -22.6 46.900000000000006 -27.700000000000003Q46.900000000000006 -32.800000000000004 44.900000000000006 -36.45Q42.900000000000006 -40.1 39.5 -42.05Q36.1 -44.0 32.2 -44.0Z M124.2 -23.5H83.7Q84.2 -17.5 87.9 -14.100000000000001Q91.60000000000001 -10.700000000000001 97.0 -10.700000000000001Q104.80000000000001 -10.700000000000001 108.10000000000001 -17.400000000000002H123.2Q120.80000000000001 -9.4 114.0 -4.25Q107.2 0.9 97.30000000000001 0.9Q89.30000000000001 0.9 82.95000000000002 -2.65Q76.60000000000001 -6.2 73.05000000000001 -12.700000000000001Q69.5 -19.200000000000003 69.5 -27.700000000000003Q69.5 -36.300000000000004 73.0 -42.800000000000004Q76.5 -49.300000000000004 82.80000000000001 -52.800000000000004Q89.10000000000001 -56.300000000000004 97.30000000000001 -56.300000000000004Q105.2 -56.300000000000004 111.45 -52.900000000000006Q117.7 -49.5 121.15 -43.25Q124.60000000000001 -37.0 124.60000000000001 -28.900000000000002Q124.60000000000001 -25.900000000000002 124.2 -23.5ZM110.10000000000001 -32.9Q110.0 -38.300000000000004 106.2 -41.550000000000004Q102.4 -44.800000000000004 96.9 -44.800000000000004Q91.7 -44.800000000000004 88.15 -41.650000000000006Q84.60000000000001 -38.5 83.80000000000001 -32.9Z M154.20000000000002 -6.800000000000001 172.60000000000002 -54.6H180.0L158.10000000000002 0.0H150.20000000000002L128.3 -54.6H135.8Z M184.70000000000002 -27.3Q184.70000000000002 -35.800000000000004 188.3 -42.150000000000006Q191.9 -48.5 198.10000000000002 -51.95Q204.3 -55.400000000000006 212.0 -55.400000000000006Q219.70000000000002 -55.400000000000006 225.95000000000002 -51.95Q232.20000000000002 -48.5 235.75 -42.150000000000006Q239.3 -35.800000000000004 239.3 -27.3Q239.3 -18.900000000000002 235.70000000000002 -12.500000000000002Q232.10000000000002 -6.1000000000000005 225.8 -2.6500000000000004Q219.5 0.8 211.8 0.8Q204.10000000000002 0.8 197.95000000000002 -2.6500000000000004Q191.8 -6.1000000000000005 188.25 -12.450000000000001Q184.70000000000002 -18.8 184.70000000000002 -27.3ZM232.10000000000002 -27.3Q232.10000000000002 -34.5 229.3 -39.45Q226.5 -44.400000000000006 221.9 -46.85000000000001Q217.3 -49.300000000000004 211.9 -49.300000000000004Q206.5 -49.300000000000004 201.9 -46.85000000000001Q197.3 -44.400000000000006 194.55 -39.45Q191.8 -34.5 191.8 -27.3Q191.8 -20.1 194.55 -15.150000000000002Q197.3 -10.200000000000001 201.85000000000002 -7.750000000000001Q206.4 -5.300000000000001 211.8 -5.300000000000001Q217.20000000000002 -5.300000000000001 221.8 -7.750000000000001Q226.4 -10.200000000000001 229.25 -15.150000000000002Q232.10000000000002 -20.1 232.10000000000002 -27.3Z"/></g>
</svg>
